<svg width="386" height="12" viewBox="0 0 386 12" fill="none" xmlns="http://www.w3.org/2000/svg">
<mask id="mask0_1_121" style="mask-type:alpha" maskUnits="userSpaceOnUse" x="0" y="0" width="386" height="12">
<rect x="0.388916" width="385.611" height="12" fill="#C4C4C4"/>
</mask>
<g mask="url(#mask0_1_121)">
<path d="M58.3089 -2.53796L59.2514 -2.69614L57.4174 -2.92292L58.2966 -3.08892C59.1781 -3.0874 60.3203 -2.83866 60.9418 -2.97083C61.0178 -3.09879 60.0578 -3.13986 59.8129 -3.24181C59.5962 -3.34631 59.4193 -3.45013 59.2843 -3.55202C59.7644 -3.55092 60.2922 -3.52628 60.8364 -3.47953C61.5684 -3.40319 62.2864 -3.36607 62.9111 -3.37229C64.1886 -3.35167 65.4228 -3.37224 66.8117 -3.36771L66.3496 -3.67567L68.1396 -3.60362C68.3293 -3.58016 68.5554 -3.61789 68.7418 -3.58887C70.2931 -3.34329 70.9495 -3.47711 71.6942 -3.58807C71.8469 -3.61678 72.0309 -3.63822 72.2412 -3.65182C74.3106 -3.593 76.1767 -3.24878 78.0404 -3.07207C78.3911 -3.02695 78.7276 -2.96904 79.0258 -2.90243C79.6741 -2.77295 80.3951 -2.66724 81.123 -2.59497C81.8509 -2.52269 82.5624 -2.48616 83.1926 -2.48871C84.5859 -2.49157 86.1601 -2.40593 87.7629 -2.24008C88.2395 -2.18545 88.7164 -2.14941 89.1632 -2.13426C89.6101 -2.11911 90.017 -2.12517 90.358 -2.15207L91.4416 -1.97627C91.9114 -2.04761 92.5069 -2.08675 93.1923 -2.09131C93.8776 -2.09588 94.6384 -2.06577 95.4285 -2.00283C96.2704 -1.93455 97.1256 -1.88853 97.9992 -1.81634C99.8036 -1.67832 101.56 -1.59392 103.213 -1.56575C105.675 -1.48225 108.081 -1.4177 110.564 -1.31361C112.118 -1.26336 113.632 -1.23573 115.097 -1.23085C116.852 -1.21119 118.751 -1.11605 120.701 -0.950019V-0.950019C120.608 -0.794239 119.753 -0.840261 119.179 -0.845533C117.328 -0.871425 115.433 -0.938519 113.528 -0.988921C112.67 -1.00859 111.836 -1.01605 111.03 -1.01122C109.682 -1.01768 108.262 -1.05919 106.793 -1.13504C104.472 -1.2185 102.225 -1.25861 100.076 -1.25498C99.9073 -1.24881 99.7528 -1.23788 99.6151 -1.22236C99.5864 -1.20893 99.5807 -1.19198 99.5987 -1.17315C99.6166 -1.15433 99.6575 -1.13424 99.7175 -1.11484C99.7776 -1.09543 99.8546 -1.07735 99.9414 -1.06231C100.028 -1.04728 100.122 -1.0358 100.213 -1.02897C101.067 -0.9234 101.984 -0.810013 102.789 -0.794062C102.82 -0.79287 102.853 -0.790148 102.886 -0.786091C102.919 -0.782034 102.951 -0.776743 102.979 -0.770603C104.781 -0.54773 106.263 -0.585445 107.667 -0.549185C109.998 -0.451184 112.245 -0.405408 114.374 -0.412548C114.696 -0.412062 115.043 -0.399323 115.404 -0.374789C117.634 -0.275341 119.719 -0.264217 121.562 -0.341924C122.32 -0.36161 123.025 -0.405805 123.84 -0.406544C124.342 -0.409586 124.779 -0.437788 125.125 -0.489463C125.47 -0.541139 125.718 -0.615218 125.851 -0.707246C126.195 -0.658794 126.544 -0.615614 126.895 -0.57822C127.104 -0.556839 127.305 -0.55116 127.456 -0.562348C127.608 -0.573537 127.699 -0.600756 127.711 -0.638501C127.774 -0.744208 127.296 -0.797294 126.882 -0.842561C127.132 -0.865232 127.414 -0.878568 127.72 -0.88225C129.447 -0.906404 131.299 -0.877896 133.236 -0.797352C134.74 -0.700943 135.941 -0.779413 137.523 -0.643456C137.713 -0.619996 137.869 -0.65443 138.044 -0.662698C138.499 -0.706236 139.066 -0.716022 139.696 -0.6912C140.326 -0.666377 141 -0.607696 141.659 -0.520244C142.48 -0.759166 144.252 -0.486219 145.561 -0.461689C145.964 -0.340185 145.502 -0.361546 145.482 -0.328164C145.462 -0.294783 145.482 -0.328172 145.324 -0.347722C144.017 -0.175652 142.226 -0.138131 140.203 -0.240434C139.829 -0.24001 139.472 -0.23217 139.137 -0.216993C138.629 -0.195511 138.056 -0.197656 137.444 -0.223334C136.774 -0.242193 136.16 -0.233236 135.629 -0.196896C135.324 -0.197488 135.066 -0.179283 134.878 -0.143957C134.691 -0.108631 134.581 -0.0573288 134.559 0.00518077C134.763 0.0533699 134.989 0.0974639 135.228 0.135712C136.478 0.28673 137.724 0.34924 138.722 0.310943C140.458 0.244958 142.524 0.30935 144.37 0.286823C145.618 0.277697 146.946 0.303691 148.329 0.364319C148.329 0.364319 148.293 0.425518 148.29 0.431082C148.453 0.457579 148.625 0.478838 148.796 0.493644C148.796 0.493644 148.796 0.493644 148.812 0.465826C148.736 0.439113 148.634 0.413982 148.516 0.393344L148.105 0.342511C148.384 0.329283 148.645 0.289898 148.936 0.313961C149.55 0.358668 150.136 0.377542 150.66 0.369461C151.184 0.361381 151.635 0.326508 151.985 0.266938C152.606 0.190591 153.378 0.155871 154.252 0.165021C154.921 0.156686 155.566 0.138772 156.184 0.111368C156.184 0.111368 156.224 0.0446112 156.516 0.00912895C156.239 -0.0346342 155.95 -0.0703697 155.663 -0.0964381C154.412 -0.161567 153.157 -0.221133 151.928 -0.265661C151.475 -0.27047 151.049 -0.26301 150.659 -0.243424C149.577 -0.220505 148.362 -0.253034 147.084 -0.339115C147.084 -0.339115 146.831 -0.370394 146.704 -0.386034C147.063 -0.532787 148.299 -0.38587 148.8 -0.485255C149.104 -0.483446 149.64 -0.470948 149.621 -0.497113C149.58 -0.532027 149.575 -0.564462 149.607 -0.592092C149.639 -0.619721 149.707 -0.641861 149.807 -0.656922C149.907 -0.671983 150.035 -0.679597 150.184 -0.67921C150.332 -0.678823 150.497 -0.670443 150.665 -0.654682C152.073 -0.569418 153.398 -0.545707 154.561 -0.585001C155.002 -0.584243 155.496 -0.558972 155.933 -0.552649C156.201 -0.545035 156.446 -0.54927 156.654 -0.565121C157.711 -0.681864 159.133 -0.690389 160.707 -0.589418C161.468 -0.553116 162.179 -0.548261 162.803 -0.575102C163.247 -0.579907 163.435 -0.496906 163.751 -0.457806L165.094 -0.375381L163.37 -0.272102C163.738 -0.0354178 164.031 0.0426252 164.634 0.0573705C165.512 0.079638 166.368 0.089698 167.195 0.0874878C167.807 0.0855424 168.313 0.0345703 169.142 0.125104C169.288 0.139871 169.429 0.144651 169.541 0.138641C170.511 0.0582669 171.68 0.0398206 172.967 0.084562C173.633 -0.0659458 174.768 0.0803871 175.818 0.198292C176.157 0.0849196 175.543 0.0328773 175.177 -0.0362975C176.055 -0.0292166 176.94 -0.0332598 177.847 -0.0167053C178.119 -0.0227323 178.431 -0.0124229 178.757 0.0134105C179.084 0.0392439 179.415 0.0798936 179.727 0.132183C179.879 0.165969 180.062 0.191397 180.238 0.203187C180.414 0.214977 180.57 0.212227 180.674 0.195506C181.144 0.146192 181.898 0.191612 182.287 0.108314C182.425 0.089157 182.623 0.0864827 182.844 0.100758C183.066 0.115034 183.297 0.145337 183.496 0.186233V0.186233C183.278 0.198993 183.084 0.219086 182.918 0.24607C182.323 0.333725 182.541 0.480187 183.297 0.69312C184.458 0.681409 185.644 0.684735 186.72 0.644603C187.32 0.608578 188.055 0.61984 188.842 0.677124C189.63 0.734408 190.439 0.835441 191.178 0.968864C191.445 1.02017 191.75 1.0557 192.032 1.06841C192.314 1.08112 192.551 1.07007 192.698 1.03745C192.79 0.999727 192.818 0.951984 192.781 0.898362L192.022 0.804525C192.022 0.804525 192.052 0.754452 192.058 0.743325L193.149 0.734913C193.726 0.734621 194.329 0.74937 194.874 0.745168C195.676 0.717224 196.59 0.7328 197.562 0.790929C198.459 0.850534 199.34 0.895588 200.198 0.925694C201.028 0.956683 201.63 0.857894 202.42 0.842118C203.017 0.830226 203.674 0.842935 204.366 0.879747C205.561 0.945035 206.658 0.945156 207.556 0.880098C208.604 1.23062 209.113 1.28761 210.086 1.1929L210.543 1.16584L210.668 1.24102L211.017 1.22449C211.671 1.20976 212.325 1.19504 213.007 1.18979C213.955 1.22232 214.979 1.30984 215.978 1.4438C216.168 1.46726 216.426 1.54697 216.593 1.60937C216.759 1.67178 217.123 1.86004 217.39 1.98259C217.099 2.07206 216.776 2.15761 216.546 2.26046C216.523 2.27803 216.525 2.29898 216.552 2.32163C216.58 2.34428 216.632 2.36799 216.704 2.39087C216.776 2.41374 216.867 2.43513 216.968 2.45333C217.07 2.47153 217.18 2.48602 217.289 2.49565C217.501 2.51639 217.711 2.53022 217.909 2.53656C218.886 2.5475 219.822 2.53937 220.707 2.51224C221.03 2.47398 221.472 2.47034 221.964 2.50192C222.456 2.5335 222.968 2.59848 223.42 2.68656C224.578 2.63368 225.924 2.6493 227.364 2.73233C228.888 2.68183 230.728 2.78396 232.151 2.67331C232.118 2.72895 232.265 2.82474 232.47 2.87992C232.794 2.96375 233.161 3.04144 233.555 3.1097L236.565 3.24297C236.677 3.3115 236.818 3.38087 236.985 3.45019C237.099 3.50493 237.298 3.55851 237.54 3.59955C237.782 3.6406 238.047 3.66588 238.28 3.67005C238.879 3.69036 239.381 3.64495 240.095 3.75713C238.995 3.86318 237.512 3.84909 235.91 3.71738C234.405 3.6172 232.956 3.56714 231.62 3.56904C231.179 3.56829 230.598 3.57413 230.46 3.63473C230.155 3.80599 229.357 3.77892 228.425 3.74733C227.693 3.71275 227.025 3.71663 226.475 3.75865C225.925 3.80068 225.508 3.87965 225.261 3.98907C225.198 4.09477 225.348 4.185 225.99 4.24651L228.661 4.49316C229.055 4.46145 229.428 4.42391 229.78 4.3807C230.373 4.32332 231.105 4.30756 231.918 4.33467C232.732 4.36178 233.607 4.43102 234.473 4.53701C234.916 4.59175 235.358 4.64649 235.679 4.62048C235.961 4.5906 236.22 4.55483 236.456 4.51343C236.503 4.48568 236.522 4.45374 236.512 4.41885C236.682 4.43508 236.853 4.45617 237.018 4.48141C238.336 4.77585 239.358 4.77075 240.285 4.69438C240.536 4.67168 240.728 4.63559 240.982 4.60733C241.236 4.57906 241.326 4.54238 241.557 4.55306C243.401 4.64962 243.931 4.32709 245.485 4.34004C245.561 4.32745 245.608 4.30861 245.622 4.28527C245.636 4.26194 245.616 4.23486 245.564 4.20652C245.455 4.18093 245.328 4.15893 245.195 4.14253C245.062 4.12613 244.928 4.11587 244.805 4.11268C244.09 4.07129 243.459 4.08398 243.019 4.14858C242.708 4.17498 242.378 4.19602 242.031 4.21157L240.476 3.7445C241.983 3.78732 243.408 3.78704 244.719 3.74367C245.005 3.71931 245.489 3.76127 245.892 3.76925L248.853 3.8129C249.461 3.81652 249.98 3.7433 250.829 3.91398C250.829 3.91398 251.39 3.94151 251.539 3.9182C251.689 3.8949 252.352 3.74995 252.747 3.65553C253.207 3.68245 253.842 3.75509 254.128 3.73074C254.628 3.67092 255.06 3.59423 255.418 3.50205L257.207 3.63364C257.205 3.75054 257.139 3.86052 257.012 3.96189C256.872 4.05966 256.877 4.17702 257.026 4.30437C257.174 4.43173 257.463 4.56546 257.867 4.69465L259.633 5.37885C259.921 5.42467 260.228 5.45551 260.513 5.46719C260.797 5.47887 261.045 5.47082 261.223 5.44413C261.983 5.3649 262.834 5.30296 263.594 5.22373C264.574 5.34494 264.323 5.54072 265.035 5.71245L267.343 5.99788C267.695 6.26238 268.054 6.51575 266.983 6.60431C266.771 6.61979 266.914 6.72114 266.72 6.76279C267.552 6.96129 268.467 7.02071 269.311 7.14297C269.644 7.2309 269.922 7.32397 270.132 7.4177C270.363 7.55882 270.831 7.70298 271.436 7.81904C272.04 7.9351 272.732 8.01375 273.362 8.03801C274.419 8.11232 275.501 8.22392 276.56 8.36782C276.922 8.41786 277.294 8.45431 277.651 8.47473C278.007 8.49515 278.341 8.49906 278.628 8.48619C279.653 8.46353 280.52 8.38562 281.174 8.25752C281.82 8.14881 282.691 8.09641 283.708 8.10508C285.447 8.32014 285.798 8.64419 286.85 8.9296L285.032 8.9616C284.966 9.07287 285.087 9.21317 284.342 9.2106C283.596 9.20803 283.974 9.3145 284.216 9.42201C284.301 9.4761 284.467 9.53173 284.687 9.5795C284.906 9.62726 285.164 9.66422 285.418 9.68412L286.966 9.82174C287.514 9.87411 288.046 9.89647 288.501 9.88637C288.956 9.87627 289.317 9.8341 289.545 9.76449C289.807 9.69838 290.169 9.65367 290.608 9.63308C291.167 9.57916 291.627 9.49896 291.97 9.39552L294.155 9.54623C294.248 9.44228 294.548 9.3694 295.005 9.3399C295.462 9.31039 296.046 9.32608 296.661 9.38432L298.133 9.47682C299.771 9.57774 300.13 9.54452 300.609 9.25146L298.646 8.72799C298.931 8.59011 299.207 8.46891 299.482 8.34772C298.993 8.17527 298.341 8.01215 297.591 7.87494C296.891 7.72751 296.172 7.58472 295.435 7.44712C294.636 7.30651 293.792 7.18425 292.8 7.02574C292.627 6.97447 292.375 6.88363 292.054 6.79612C291.732 6.71107 291.397 6.6277 291.048 6.54634C291.114 6.43507 291.174 6.33493 291.047 6.20576C291.658 6.24697 292.289 6.31906 292.883 6.41551C293.478 6.51197 294.017 6.62976 294.452 6.75826C294.525 6.78106 294.615 6.80246 294.715 6.82104C294.816 6.83961 294.924 6.85493 295.033 6.86594C296.107 6.9449 296.62 7.10985 297.144 7.31211C297.498 7.41549 297.953 7.50731 298.448 7.57481C299.396 7.69212 300.325 7.8428 301.232 7.97289C301.51 8.01623 301.799 8.05191 302.086 8.07845C303.034 8.16284 303.989 8.28084 304.9 8.42645C305.198 8.46346 305.483 8.51243 305.733 8.56928C305.983 8.62613 306.189 8.68919 306.335 8.75322C306.11 8.82336 305.988 8.9119 305.977 9.0135C305.938 9.08026 306.604 9.21636 306.918 9.31501C307.233 9.41365 306.616 9.36718 306.406 9.3771C305.547 9.39618 305.387 9.43617 305.902 9.65512C306.074 9.72396 306.188 9.79285 306.237 9.85749C306.287 9.92213 306.27 9.98116 306.188 10.0309C306.066 10.2368 305.694 10.4058 305.439 10.6071C305.835 10.7397 306.498 10.8814 306.57 11.0456C306.605 11.082 306.678 11.1206 306.785 11.1586C306.891 11.1965 307.028 11.2329 307.186 11.2651C307.603 11.3346 307.981 11.4177 308.292 11.508C308.604 11.5983 308.84 11.6933 308.982 11.7857C309.028 11.824 309.141 11.8645 309.296 11.8993C309.452 11.934 309.639 11.9604 309.821 11.9731C310.038 11.9887 310.232 11.9867 310.364 11.9674C310.495 11.948 310.554 11.913 310.527 11.8694C310.533 11.7874 310.504 11.702 310.441 11.6139C310.478 11.5527 310.514 11.4915 310.371 11.3901C311.019 11.4271 311.699 11.5012 312.338 11.6045C312.977 11.7077 313.55 11.836 313.994 11.9756C314.485 12.1199 314.939 12.2715 315.483 12.4404C315.371 12.6295 315.371 12.6295 316.53 12.964L322.678 13.1271L323.939 13.3486C325.114 13.5417 325.393 13.5284 326.131 13.4286L326.628 13.3348C327.672 13.4638 328.873 13.6124 329.526 13.3706C329.738 13.5282 329.876 13.5811 329.828 13.6051C329.516 13.8376 328.975 14.0349 328.225 14.1892C328.034 14.2253 327.9 14.2803 327.677 14.3125C326.959 14.4941 326.792 14.7747 327.211 15.097C327.419 15.2396 327.721 15.3856 328.108 15.5303C327.542 15.7312 326.793 15.8976 325.88 16.0252C325.105 16.1238 324.467 16.2559 323.983 16.4177C323.55 16.5809 322.9 16.7035 322.072 16.7786C321.652 16.8105 321.346 16.8735 321.183 16.9613C321.135 17.1989 321.246 17.4533 321.514 17.7188C321.565 17.7996 321.708 17.8869 321.933 17.9738C322.158 18.0607 322.459 18.1449 322.812 18.2197C322.812 18.2197 322.982 18.2766 323.064 18.3106C323.132 18.5983 322.877 18.8519 322.317 19.0543C322.225 19.1117 322.037 19.1532 321.773 19.1742C321.51 19.1953 321.18 19.1951 320.82 19.1738C320.06 19.1395 319.35 19.1353 318.614 19.116C317.822 19.0888 317.124 19.1102 316.594 19.1782C316.064 19.2461 315.721 19.3579 315.602 19.502C315.594 19.5427 315.571 19.5818 315.533 19.6188C315.51 19.6379 315.498 19.6584 315.496 19.68L317.185 20.1516L315.275 20.3393C315.162 20.5285 316.079 20.6419 316.539 20.7823L316.255 20.8607C315.889 20.905 315.397 20.8202 314.951 20.771L314.508 20.7163L314.455 20.8053C314.179 20.9265 313.174 20.7903 312.782 20.8791C312.39 20.968 312.67 21.0683 313.257 21.1648C313.666 21.2366 314.104 21.2938 314.54 21.3322C314.976 21.3706 315.398 21.3891 315.773 21.3864C315.998 21.3769 316.184 21.3552 316.32 21.3226C317.113 21.184 317.989 21.0648 318.942 20.966C319.672 20.8772 320.586 20.8395 321.621 20.8554C321.924 20.8487 322.29 20.8697 322.655 20.9147C323.019 20.9598 323.358 21.026 323.613 21.1017V21.1017L324.149 21.1142C324.149 21.1142 324.442 21.1922 324.4 21.205C324.196 21.4362 324.433 21.7189 325.076 22.0111V22.0111L324.517 22.0376C323.718 22.0105 324.225 22.1866 324.105 22.2734C323.538 22.257 322.801 22.1837 322.532 22.2938L322.129 22.2858L322.287 22.3054L322.479 22.2693L323.23 22.4338C322.874 22.4615 322.616 22.4953 322.302 22.5102C322.128 22.5231 321.99 22.546 321.895 22.5774C321.801 22.6088 321.752 22.6481 321.752 22.693C321.753 22.762 321.659 22.8201 321.48 22.8617C321.301 22.9033 321.042 22.9271 320.728 22.9307C320.354 22.9322 320.14 23.0072 319.92 23.0339L320.874 23.4862C320.874 23.4862 320.4 23.4275 320.658 23.5072L320.691 23.4516L321.268 23.5648C321.685 23.6641 321.976 23.6881 322.222 23.617C322.467 23.5459 322.411 23.6405 322.529 23.6133C322.486 23.6856 322.219 23.7361 321.99 23.7794C321.724 23.8134 321.425 23.8385 321.097 23.8541C321.688 24.1722 321.717 24.1816 320.852 24.2658C319.988 24.35 320.286 24.4765 319.563 24.4945C318.839 24.5126 319.662 24.7278 320.146 24.7697C320.505 24.7973 320.871 24.8403 321.219 24.8957C321.567 24.9511 321.888 25.0176 322.162 25.0906L322.016 25.3354C321.803 25.3152 321.59 25.2888 321.384 25.2572C320.683 25.1228 320.045 24.9962 319.422 25.0743L319.719 25.2604L317.543 25.1525C317.599 25.2919 317.931 25.4507 318.468 25.5954V25.5954C318.387 25.6748 318.337 25.7585 318.319 25.8457C318.283 25.9069 318.068 25.8684 317.928 25.875C317.43 25.8853 317.021 25.9267 316.737 25.9958C316.454 26.0648 316.304 26.1594 316.302 26.2711C316.246 26.3656 317.012 26.5619 317.491 26.5554C318.687 26.5743 319.98 26.6471 321.301 26.7698C322.106 26.7857 322.219 26.537 323.544 26.7068C323.57 26.8216 323.401 26.9146 323.061 26.9717C322.721 27.0288 322.229 27.0468 321.659 27.0231C321.983 27.2782 323.776 27.3447 323.856 27.6113C323.409 27.5924 322.932 27.5481 322.47 27.4827C322.009 27.4173 321.58 27.3331 321.226 27.2383C321.15 27.215 321.054 27.1934 320.947 27.1757C320.84 27.158 320.726 27.1447 320.616 27.137C320.506 27.1293 320.402 27.1274 320.315 27.1316C320.228 27.1358 320.16 27.1459 320.118 27.161C320.366 27.2574 320.639 27.3688 320.951 27.473C321.262 27.5772 321.338 27.6223 321.562 27.6442C323.238 27.8514 324.035 28.2246 325.485 28.4696C325.864 28.5165 325.911 28.6657 325.582 28.6488C325.268 28.632 324.985 28.6342 324.762 28.6552C324.54 28.6762 324.388 28.7152 324.323 28.7679C324.08 28.8293 323.777 28.8782 323.422 28.9133C324.909 29.2963 326.682 29.6347 328.575 29.8968C328.933 29.9486 329.307 29.9801 329.641 29.9869C330.698 29.9872 331.819 30.0176 332.982 30.0774C333.394 30.0937 333.775 30.0922 334.104 30.0729C335.184 30.0272 336.041 30.1273 336.824 30.4092L338.12 30.8561C338.077 30.9284 337.859 31.009 337.692 31.1197L338.704 31.3584L346.429 30.8087L347.98 31.3409L350.204 31.3113C350.374 31.3267 350.546 31.3479 350.71 31.3739C351.16 31.531 351.511 31.682 351.999 31.8319C352.487 31.9818 353.359 32 353.967 32.1767C354.575 32.3534 355.184 32.3571 355.936 32.462C356.007 32.5988 355.933 32.7219 355.721 32.8236C355.652 32.9405 355.27 33.0127 355.203 33.1239C355.211 33.2364 355.069 33.3319 354.79 33.4017C354.512 33.4715 354.105 33.5135 353.608 33.5239C352.217 33.7633 350.538 33.9338 348.624 34.0302C348.456 34.0372 348.316 34.0534 348.214 34.0778C348.112 34.1021 348.05 34.1342 348.031 34.1719C348.033 34.281 347.906 34.3754 347.657 34.4479C347.409 34.5205 347.045 34.5695 346.594 34.5914C346.474 34.5958 346.383 34.6095 346.333 34.6308C346.162 34.6445 346.037 34.6708 345.971 34.7071C345.905 34.7435 345.899 34.7886 345.955 34.8381C346.011 34.8877 346.126 34.94 346.29 34.99C346.453 35.04 346.66 35.086 346.889 35.1235C347.221 35.1841 347.561 35.242 347.906 35.2971C347.886 35.3305 347.544 35.3359 347.594 35.3659C347.729 35.4619 347.76 35.5519 347.685 35.6286C347.61 35.7054 347.431 35.7668 347.161 35.8082L349.008 36.5859C350.128 36.6936 351.228 36.8763 352.097 37.0993C352.098 37.1358 352.048 37.1664 351.952 37.1881C351.856 37.2097 351.717 37.2216 351.549 37.2226C351.098 37.2385 350.672 37.2695 350.187 37.2871C349.89 37.3002 349.643 37.3291 349.46 37.3721C349.277 37.4151 349.162 37.4714 349.122 37.5376L350.206 37.8269C349.858 37.8974 349.601 37.9312 349.371 37.9745C349.501 38.0655 349.725 38.1595 350.025 38.2494C350.324 38.3393 350.692 38.4226 351.1 38.4929C351.209 38.5074 351.321 38.518 351.428 38.524C351.535 38.5301 351.636 38.5315 351.724 38.5282C352.564 38.429 353.546 38.6042 354.499 38.7699C355.453 38.9356 355.971 39.0355 356.675 39.1644L358.023 39.1817C358.364 39.2427 358.668 39.3144 358.911 39.3912C359.154 39.4679 359.33 39.5475 359.423 39.6236C359.351 39.746 358.712 39.679 358.331 39.6916C357.427 39.7678 356.239 39.7515 354.964 39.6455C354.648 39.6064 354.324 39.638 354.016 39.6417C353.352 39.657 352.714 39.6818 352.105 39.716C351.704 39.7479 351.329 39.7873 350.983 39.834C350.89 39.9898 352.346 40.1101 351.52 40.1871C351.805 40.2223 351.911 40.2713 352.058 40.2536C352.995 40.3547 353.918 40.4047 354.721 40.3978C356.261 40.3763 358.011 40.4473 359.825 40.6049C361.784 40.7683 363.663 40.8368 365.307 40.805C365.933 40.8032 366.633 40.8366 367.353 40.9028C368.204 40.9945 369.048 41.0521 369.832 41.072C370.092 41.0727 370.381 41.0883 370.676 41.1175C370.971 41.1468 371.264 41.1888 371.531 41.2403V41.2403C371.508 41.2792 371.254 41.3075 371.31 41.3264C372.122 41.6179 372.451 41.9213 373.699 42.2191C374.553 42.3246 375.533 42.4458 376.092 42.3059C376.65 42.1659 376.45 42.0456 375.339 41.6872C375.58 41.6821 375.87 41.6988 376.159 41.7345C376.448 41.7703 376.717 41.8227 376.92 41.8827L377.881 42.1509L378.747 42.4072C378.671 42.5352 378.611 42.6353 378.548 42.7411C378.449 42.8533 378.558 42.99 378.86 43.1319C379.041 43.2093 379.2 43.2868 379.333 43.3636C379.874 43.6707 380.031 43.961 379.786 44.2019C379.316 44.5483 378.661 44.867 377.829 45.1543C376.95 45.4338 376.469 45.7864 375.745 46.0911C375.376 46.2298 374.928 46.3541 374.405 46.4627C373.413 46.7044 372.326 46.9343 371.331 47.1815C370.335 47.4286 369.212 47.6062 368.106 47.8099C366.461 48.0517 364.682 48.2605 362.78 48.4352C361.603 48.5883 360.394 48.7374 359.306 48.9134C358.02 49.1116 356.509 49.2541 354.811 49.337C353.312 49.4363 351.972 49.5832 350.818 49.7748C350.697 49.7956 350.601 49.8219 350.534 49.8532C350.326 50.0486 349.744 50.1863 348.876 50.2453C348.928 50.3025 348.996 50.3607 349.078 50.4196C349.198 50.4898 349.223 50.5554 349.15 50.6081C349.076 50.6607 348.907 50.698 348.665 50.7149C347.97 50.7633 347.393 50.8455 346.959 50.9579C346.8 50.986 346.701 51.0271 346.671 51.0775C346.641 51.1279 346.681 51.1861 346.788 51.2472C346.882 51.31 346.889 51.3678 346.807 51.4131C346.726 51.4585 346.56 51.4892 346.331 51.5013C345.744 51.5608 345.114 51.6086 344.447 51.6446C343.028 51.7238 341.378 51.7228 339.595 51.6418C339.406 51.6183 339.215 51.6544 338.993 51.627C337.733 51.5362 336.562 51.5221 335.623 51.5865C334.522 51.6116 333.371 51.6066 332.21 51.6184C330.533 51.6105 328.986 51.6583 327.612 51.7604C326.041 51.6617 325.158 51.8333 323.833 51.8366C322.609 51.8542 321.449 51.8964 320.364 51.963C318.614 52.0512 316.871 52.1283 315.147 52.2316C313.529 52.2808 312.04 52.3749 310.704 52.5123C310.192 52.5743 309.265 52.4777 308.916 52.6077C308.567 52.7378 307.864 52.7224 307.295 52.7656L305.501 52.8722C305.192 52.8975 304.853 52.9136 304.488 52.9201C302.82 52.9288 301.665 53.1025 300.116 53.1379L299.958 53.1184C297.209 53.3765 294.062 53.5182 290.612 53.5393C288.596 53.6185 286.392 53.6147 284.254 53.6727C283.743 53.7888 282.539 53.6457 281.899 53.7517C281.259 53.8577 280.214 53.7883 279.389 53.8057C278.564 53.8231 277.757 53.8667 276.876 53.8652C276.11 53.8657 275.464 53.913 274.995 54.0029C273.926 54.1515 272.622 54.2388 271.142 54.261C269.185 54.2996 267.334 54.3873 265.343 54.368C265.371 54.4763 265.249 54.5684 264.989 54.6349C264.729 54.7014 264.34 54.7398 263.862 54.7463C261.734 54.7876 259.803 54.8952 257.646 54.9271L257.069 54.9274L250.617 54.9895C248.879 55.0015 247.204 55.0214 245.431 55.035C244.767 54.9529 244.751 55.0943 244.291 55.0673C244.163 54.9977 244.012 54.967 243.786 55.0048L243.736 55.0882L236.373 55.1989C233.49 55.2799 230.458 55.3042 227.301 55.2716C226.553 55.2798 225.854 55.3074 225.216 55.3541C224.625 55.3711 224.008 55.3787 223.37 55.3766C222.507 55.3556 221.663 55.345 220.843 55.3449C218.686 55.3767 216.422 55.3595 214.06 55.3362C211.698 55.3128 209.908 55.3543 207.806 55.3511C206.382 55.3482 204.965 55.3342 203.491 55.3013C202.787 55.2859 201.92 55.2026 201.192 55.1722C200.463 55.1418 200.225 55.1423 200.129 55.1901C199.812 55.3241 199.015 55.2374 198.378 55.2244C197.135 55.2021 196.958 55.1564 196.621 54.8101L198.146 54.7C198.519 54.6645 198.989 54.6583 199.51 54.6819C200.031 54.7055 200.586 54.7582 201.12 54.835C201.331 54.8678 201.551 54.8938 201.767 54.9114C201.984 54.929 202.194 54.9378 202.383 54.9374C203.922 54.9186 205.439 54.8792 206.917 54.8471L207.133 54.826L207.147 54.5172C206.951 54.4868 206.749 54.4618 206.546 54.4429L199.13 54.2425C197.428 54.1933 195.661 54.0823 193.991 54.037C192.321 53.9917 191.421 53.964 190.125 53.9172C189.578 53.8906 189.021 53.8556 188.456 53.8124C188.489 53.7827 188.508 53.751 188.513 53.7178C188.542 53.6678 188.582 53.601 188.342 53.5474C188.081 53.4719 187.731 53.4073 187.363 53.3667C187.018 53.3399 186.683 53.3247 186.372 53.3217C184.868 53.2958 183.15 53.1327 181.584 52.8671L181.038 53.0444C178.687 52.9448 176.302 52.8468 173.846 52.7522C173.354 52.7264 172.838 52.6769 172.337 52.6074C171.799 52.5409 171.305 52.4021 170.739 52.3262C170.18 52.2715 169.624 52.2289 169.083 52.1991C169.23 52.1535 169.423 52.117 169.657 52.0909C169.887 52.0817 170.054 52.0532 170.135 52.0095C170.216 51.9658 170.206 51.9092 170.106 51.8479C169.931 51.7426 169.854 51.6435 170.235 51.6309C170.587 51.6069 170.839 51.5549 170.961 51.4811C171.083 51.4073 171.07 51.3148 170.924 51.2144C170.859 51.1557 170.814 51.0982 170.788 51.0424V51.0424L170.63 51.0228C170.108 50.815 169.067 50.7399 168.319 50.5699C167.967 50.5206 167.601 50.4922 167.281 50.4892C166.454 50.4527 165.649 50.4367 164.794 50.3907C164.386 50.3695 163.958 50.3309 163.538 50.2772C162.937 50.2029 162.874 50.1951 162.525 49.925C163.067 49.9297 163.496 49.8894 163.74 49.8108C163.985 49.7322 164.03 49.6202 163.867 49.4938C163.42 49.2175 162.948 48.9263 160.926 48.73C161.585 48.7203 162.22 48.7011 162.827 48.6724C163.004 48.6663 163.136 48.646 163.206 48.6143C163.276 48.5826 163.281 48.541 163.22 48.4951C163.158 48.4492 163.034 48.4011 162.863 48.3574C162.692 48.3137 162.483 48.2763 162.263 48.2503C161.196 48.0941 160.083 47.9895 159.048 47.9484C158.177 47.9302 157.39 47.9404 156.372 47.9399L155.17 47.7913C155.19 47.7579 155.014 47.7122 155.058 47.6939C155.364 47.5226 155.701 47.3553 156.047 47.1712C155.493 47.0718 155.014 46.9519 154.663 46.825C154.312 46.6982 154.104 46.5696 154.063 46.4541C154.033 46.4192 154.041 46.3874 154.086 46.361C154.131 46.3346 154.212 46.3142 154.324 46.3012C154.64 46.2788 154.884 46.2361 155.037 46.1764C155.191 46.1166 155.249 46.0414 155.207 45.9565L154.273 45.6439C151.459 45.4208 148.697 45.2615 146.036 45.1688L143.633 45.0986C143.344 45.015 143.433 44.9784 143.706 44.9763C143.979 44.9741 144.746 44.9973 145.281 45.0098C145.744 45.0262 146.155 45.0154 146.474 44.9785C146.793 44.9416 147.01 44.8798 147.103 44.7992L146.297 44.4426C146.337 44.3759 146.393 44.2813 146.83 44.2876C147.129 44.2799 147.349 44.2463 147.455 44.1922C147.561 44.1381 147.547 44.0668 147.414 43.9896C147.394 43.9338 147.424 43.8829 147.504 43.8394C148.151 43.8358 148.794 43.8377 149.381 43.8208C149.655 43.8151 149.886 43.7945 150.058 43.7602C150.231 43.7259 150.341 43.6787 150.382 43.622C150.403 43.5666 150.351 43.5035 150.231 43.4378C150.111 43.3721 149.925 43.3057 149.69 43.2438C148.77 43.1673 147.928 43.1663 147.349 43.2411C147.143 43.2997 146.812 43.3317 146.399 43.3329C145.986 43.3341 145.512 43.3044 145.037 43.2478C144.495 43.1825 143.953 43.1538 143.509 43.1669C143.066 43.1799 142.751 43.2339 142.619 43.319C142.062 43.2859 141.568 43.2607 141.08 43.2243C140.505 43.1784 139.962 43.1648 139.508 43.1852C138.783 43.1995 138.001 43.1911 137.181 43.1602C134.817 43.0828 132.45 43.0111 130.161 42.9789C129.556 42.9697 129.032 42.9945 128.433 42.9742C127.834 42.9539 127.36 43.0087 126.611 42.8982C126.469 42.881 126.325 42.87 126.192 42.866C126.059 42.862 125.94 42.8651 125.844 42.875C124.529 42.9624 122.987 42.9748 121.309 42.9114C119.01 42.8958 116.626 42.8519 114.324 42.8419C113.649 42.8505 113.011 42.8735 112.417 42.9106C111.964 42.9331 111.491 42.9483 110.998 42.9562C110.62 42.9632 110.259 42.9425 110.323 43.0638C110.387 43.1852 109.821 43.1092 109.495 43.0868C108.374 43.028 107.229 42.9483 106.072 42.8487C104.932 42.7405 103.815 42.6775 102.788 42.6636C102.046 42.6554 101.281 42.6863 100.327 42.5205C100.364 42.4593 100.4 42.3981 100.608 42.3342C99.8298 42.1584 98.9423 42.0071 98.0186 41.8929C97.0948 41.7787 96.1614 41.7048 95.2955 41.6773L94.1014 41.3446C93.8074 41.3055 93.5073 41.277 93.2192 41.2609C92.9312 41.2448 92.6613 41.2414 92.426 41.2508C92.2441 41.2557 92.0225 41.2433 91.8018 41.216C91.5811 41.1887 91.3761 41.1483 91.2244 41.1023C90.9976 41.0437 90.7207 40.9931 90.4283 40.957C90.1358 40.9208 89.8407 40.9006 89.5802 40.8989C88.7597 40.8627 87.884 40.7792 87.0425 40.6568C86.8242 40.5851 86.6873 40.5109 86.6489 40.4436C86.6105 40.3762 86.6722 40.3186 86.8264 40.2777C87.075 40.2056 87.2145 40.1137 87.2367 40.0077C87.2588 39.9016 87.163 39.7835 86.9551 39.6606C86.8486 39.5852 86.8131 39.5137 86.8505 39.4506C86.888 39.3875 86.9977 39.334 87.1731 39.2934C87.8276 39.1056 87.6525 39.0004 86.5816 38.6888C86.4077 38.6369 86.198 38.5883 85.9658 38.5462C85.7337 38.5042 85.4843 38.4695 85.2333 38.4444C84.6443 38.3936 84.0634 38.3559 83.5012 38.3318C83.185 38.2927 82.8608 38.3242 82.4964 38.309C80.6748 38.2331 80.4081 38.1105 79.8182 37.8465L79.3882 37.656C78.5908 37.5016 77.7187 37.3735 76.8347 37.2807C75.9507 37.1879 75.0769 37.1328 74.2762 37.1194C73.9579 37.1184 73.592 37.092 73.2346 37.0443C72.0713 36.8985 70.8933 36.7976 69.7785 36.7483C69.0838 36.7206 68.335 36.6488 67.622 36.5415C66.909 36.4343 66.262 36.2962 65.7589 36.1438C65.307 36.0065 64.7157 35.8833 64.0675 35.7913C63.3086 35.6975 63.2383 35.5873 63.6621 35.5023C64.0859 35.4174 64.7956 35.308 65.4256 35.2187C65.6449 35.1884 65.7807 35.139 65.818 35.0762C65.8553 35.0133 65.7927 34.9394 65.637 34.8627C65.5371 34.7314 65.5197 34.6068 65.5854 34.492C65.6206 34.4443 65.5963 34.3896 65.5143 34.3315C65.4324 34.2735 65.2945 34.2135 65.1102 34.1557C64.9258 34.0978 64.6992 34.0433 64.4456 33.996C64.192 33.9486 63.9173 33.9095 63.64 33.8812C62.4701 33.7365 61.3317 33.5957 60.1387 33.49C59.6387 33.4402 59.1392 33.3784 58.6525 33.3062C57.6563 33.1277 56.5904 32.9797 55.5169 32.8707C55.0074 32.822 54.5093 32.7368 54.1304 32.6336C52.9352 32.3555 51.8339 32.0631 50.8464 31.7617C50.6084 31.6682 50.297 31.577 49.9317 31.4938C49.5664 31.4106 49.1551 31.3372 48.7236 31.2782C48.3758 31.2352 48.0927 31.1405 47.8246 31.0775C47.6298 30.9316 47.6089 30.7966 47.7641 30.6852C47.9193 30.5738 48.2454 30.4897 48.7117 30.4407C49.1539 30.3819 49.5677 30.3136 49.95 30.2415C50.4108 30.1831 50.9585 30.1481 51.573 30.1376C52.3007 30.1063 52.8388 30.0167 53.1171 29.8806C51.125 29.6343 49.2306 29.2806 47.4845 29.3633L46.1578 29.1395C46.2106 29.0505 46.2569 28.9726 46.2998 28.9003C46.6153 28.7686 46.7139 28.6026 46.5871 28.4162C46.4826 28.3261 46.492 28.2441 46.6144 28.1785C46.7368 28.1129 46.9678 28.066 47.2841 28.0426C49.1577 27.8025 51.3243 27.6404 53.0812 27.368C53.6321 27.3169 54.277 27.2936 54.9887 27.2993C55.6773 27.2829 55.6485 27.1599 54.8561 27.0082C54.4113 26.9289 53.958 26.8529 53.4978 26.7805C51.4685 26.7684 50.6418 27.132 48.326 27.0308L47.2526 26.5517C46.9624 26.5443 46.6807 26.5414 46.4093 26.543L42.5263 26.7376C42.2029 26.7474 41.9511 26.7807 41.7996 26.8337C41.6481 26.8868 41.603 26.9575 41.6693 27.0378C41.6956 27.136 41.6421 27.2261 41.5108 27.3048C41.4261 27.3599 41.4803 27.4332 41.6614 27.5086C42.0697 27.6785 41.5458 27.7033 41.215 27.746C41.1305 27.7502 41.033 27.7497 40.9282 27.7447C40.8234 27.7396 40.7134 27.7301 40.6045 27.7167C40.4957 27.7032 40.3902 27.6861 40.2942 27.6663C40.1981 27.6465 40.1135 27.6244 40.0451 27.6013C39.4622 27.4397 38.9525 27.2691 38.3795 27.0908C38.7863 26.9201 38.3077 26.64 38.9424 26.4856C39.0134 26.4547 39.0418 26.4171 39.0259 26.3751C39.01 26.3331 38.95 26.2875 38.8498 26.2412C38.5914 26.1217 38.4683 26.0051 38.4929 25.9033C38.5176 25.8015 38.6892 25.7181 38.9904 25.6614L39.0267 25.6002C38.2324 25.3945 38.4428 25.2115 38.1309 24.9938L37.3668 24.8515C35.4658 24.5089 35.4624 24.5145 33.8258 24.5271C33.4959 24.3967 33.915 24.3769 34.2293 24.362L36.8618 24.2157C38.5829 24.118 40.354 24.0504 42.2767 24.0134C44.1993 23.9765 46.3428 23.8533 48.3301 23.7647C48.4306 23.7578 48.5074 23.7442 48.5542 23.7251C48.601 23.7059 48.6164 23.6817 48.5991 23.6546C48.5201 23.6252 48.4167 23.5969 48.2965 23.5717C48.1763 23.5465 48.0425 23.5251 47.9048 23.509C47.2724 23.4308 46.6235 23.3804 45.9496 23.315L44.6932 23.2015L44.3067 23.0522C44.0552 22.9613 43.8833 22.8505 43.5487 22.7852C43.2729 22.7366 42.9736 22.6996 42.6818 22.6782C42.3901 22.6569 42.1166 22.6518 41.8899 22.6637C41.2613 22.6935 40.6926 22.7366 40.0923 22.7759C39.492 22.8151 39.1612 22.8578 38.6406 22.877C37.583 22.8858 36.5609 22.9089 35.5788 22.9463C34.7515 23.0348 33.9863 23.1397 33.2881 23.2602C32.8525 23.3079 32.4452 23.365 31.7014 23.3029C31.3485 23.2466 31.0442 23.1726 30.8423 23.0941C30.6404 23.0155 30.554 22.9375 30.5984 22.8739C30.6383 22.824 30.7513 22.7846 30.9267 22.7592C31.1021 22.7339 31.3341 22.7235 31.6008 22.7291C32.3473 22.7199 33.0377 22.6891 33.658 22.6371C34.5213 22.543 35.5723 22.5024 36.7495 22.5178C37.1488 22.5313 37.4164 22.4808 37.7656 22.4643C38.1149 22.4477 38.4107 22.4067 38.8001 22.4369C40.0096 22.5148 40.5896 22.3954 41.3145 22.3179C41.5599 22.2835 41.7119 22.2279 41.7539 22.1572C41.7958 22.0865 41.7261 22.0035 41.5523 21.9173C41.2177 21.7456 40.8085 21.5729 40.3309 21.402C40.0851 21.3179 39.7702 21.2381 39.4109 21.1688C39.0516 21.0996 38.6576 21.0426 38.2599 21.0025C38.0219 20.8974 37.8949 20.794 37.8905 20.7017C37.886 20.6093 38.0042 20.5311 38.2344 20.4739C38.821 20.3433 39.341 20.2106 40.6553 20.2835C41.2733 20.3114 41.8549 20.3167 42.3769 20.2993C43.5349 20.2755 44.8706 20.3276 46.2581 20.4508C46.6172 20.4824 46.97 20.5039 47.3063 20.5147C49.7052 20.5904 51.9907 20.6282 54.2829 20.6548C55.4972 20.6676 56.7214 20.6638 57.989 20.7011C60.9618 20.782 63.6678 20.7404 66.5372 20.7668C68.0399 20.7803 69.385 20.7258 70.5019 20.6061C70.7194 20.5659 70.9062 20.5191 71.0601 20.4661C70.32 20.327 69.507 20.2169 68.6991 20.1462C67.8912 20.0756 67.1154 20.0468 66.446 20.0627C66.078 20.1017 65.6023 20.1088 65.0721 20.0833C64.5419 20.0578 63.9779 20.0007 63.443 19.9183V19.9183L64.9981 19.8717C66.0292 19.85 67.0854 19.8432 68.0883 19.8119C69.6815 19.7581 71.1581 19.672 72.808 19.6371C74.14 19.6051 75.332 19.5231 76.3465 19.3939C77.0794 19.2996 77.9165 19.2328 78.8407 19.1947C79.4976 19.1744 79.4976 19.1744 79.9176 18.9815C79.5844 18.8567 79.1535 18.8392 78.7476 18.8368C76.3144 18.7583 73.9988 18.7445 71.8479 18.7958C70.7628 18.8004 69.8 18.8533 69.006 18.952C68.8116 18.9937 68.3141 18.9739 67.9149 18.9604C66.6633 18.9398 65.467 18.9458 64.3405 18.9783C62.783 19.0324 61.0483 19.0195 59.2039 18.9403C58.8542 18.8433 59.2567 18.8513 59.2766 18.8179C60.7051 18.7556 62.1053 18.6839 63.5622 18.6312C63.9604 18.6124 64.3861 18.6031 64.8345 18.6034C66.5084 18.6361 67.9033 18.5455 68.8237 18.3442C68.8699 18.2663 69.4754 18.2755 69.743 18.225C69.8747 18.1813 69.9623 18.1298 70.0035 18.0721C69.6136 17.9283 69.1728 17.9275 68.8335 17.9274C67.8489 17.9434 66.9016 17.9739 65.9963 18.0185C65.1548 18.061 64.2232 18.0723 63.227 18.0523C62.4917 18.033 61.8631 18.0628 61.1212 18.0546C60.7188 18.0375 60.3022 18.0101 59.88 17.9728C60.3501 17.8726 60.9891 17.811 61.7522 17.7923C62.3308 17.7324 63.0542 17.7144 63.1467 17.5586C62.8734 17.4472 62.569 17.4454 62.3245 17.4569C61.8157 17.4565 61.3242 17.4635 60.8526 17.478C59.8526 17.5096 58.77 17.5101 57.6274 17.4793C57.0257 17.4678 56.4548 17.4712 55.9242 17.4896C54.7217 17.5141 53.5692 17.5687 52.4682 17.5938C50.2129 17.6195 48.1558 17.7115 45.9887 17.76C45.5064 17.772 45.074 17.8141 44.4383 17.7415C43.8026 17.6688 43.7743 17.6594 43.6993 17.6142C43.5214 17.539 43.4675 17.466 43.5487 17.4105C43.6748 17.3586 43.9205 17.3297 44.2419 17.329C46.1792 17.2465 48.0166 17.1306 49.7428 16.982C50.5024 16.9523 51.168 16.8916 51.7163 16.8021C52.1512 16.7404 52.667 16.6996 53.2477 16.6809C54.0922 16.6363 54.9726 16.6037 55.8854 16.5831C56.31 16.572 56.6711 16.539 56.9474 16.4859C57.2237 16.4329 57.4096 16.361 57.4941 16.2744L56.3751 15.9867C56.1993 15.9733 56.0249 15.9617 55.8527 15.952L46.5655 16.1592L45.6458 16.1649C44.6377 16.1477 44.3913 16.1053 43.4351 15.7721C45.6174 15.6937 47.3328 15.4652 48.4106 15.1093C48.1516 15.0711 47.886 15.0382 47.6201 15.0116C45.8762 14.9274 44.2276 14.9051 42.7379 14.9454C41.853 14.9494 40.9432 14.9384 40.03 14.933C40.2971 14.7689 41.3202 14.8178 41.987 14.7808C43.5803 14.723 44.9893 14.6034 46.1688 14.426C46.5755 14.3569 47.0843 14.3126 47.6718 14.2954C48.2599 14.2894 48.7511 14.2476 49.1027 14.1734C49.4543 14.0993 49.6557 13.9951 49.6893 13.87C49.7446 13.7567 49.864 13.6515 50.0456 13.5558C49.7244 13.42 49.2144 13.29 48.6112 13.1901C48.0081 13.0902 47.3533 13.0274 46.7698 13.0133C45.524 12.9574 44.2319 12.8659 42.9263 12.7411C42.276 12.6782 41.6382 12.642 41.0546 12.6351C40.5399 12.6297 39.9548 12.5843 39.3887 12.5056C38.8226 12.427 38.3064 12.3195 37.919 12.1996C37.3961 12.0513 36.908 11.9014 36.42 11.7514C35.932 11.6015 35.3657 11.4121 34.796 11.2281C34.2938 11.1994 33.8047 11.1809 33.3354 11.1729C32.9703 11.1797 32.5442 11.1596 32.1076 11.1151C31.6709 11.0707 31.2417 11.0036 30.8708 10.9219V10.9219C31.0884 10.8413 31.3343 10.7702 31.5934 10.6768C31.2378 10.5535 30.9799 10.4278 30.8356 10.3073C30.6912 10.1868 30.6633 10.074 30.7537 9.97581C30.8065 9.8868 30.42 9.73747 30.2864 9.61943C30.1144 9.51767 30.0821 9.42271 30.1937 9.34699C30.3053 9.27127 30.5555 9.21833 30.9117 9.19511C31.3534 9.15226 31.7128 9.08773 31.9754 9.00416C32.0622 8.98247 32.1064 8.95276 32.1039 8.91775C32.1014 8.88274 32.0524 8.84355 31.9612 8.80376C31.87 8.76398 31.7396 8.72486 31.582 8.68999C31.4244 8.65512 31.2445 8.62561 31.0588 8.60417C30.49 8.54337 29.9251 8.50396 29.3966 8.4882C28.4861 8.45922 27.6144 8.44101 26.7816 8.43358C25.8606 8.4224 24.8359 8.35339 23.8117 8.23355C22.8947 8.12016 22.0726 8.01849 21.6242 7.8018C21.1758 7.58512 20.4589 7.59202 19.9077 7.43428C20.2173 7.29208 20.7677 7.19329 21.5033 7.14786C21.9846 7.13164 22.3864 7.08908 22.6829 7.02289C22.9793 6.95671 23.1639 6.86837 23.2248 6.76354L21.5512 6.32369C20.2147 6.11661 19.4752 6.27599 18.0311 6.19297L19.5191 6.03059C19.549 6.01454 19.5601 5.9957 19.5521 5.97496C19.4076 5.64655 19.1778 5.57633 17.6567 5.39421L16.803 5.28864L15.4518 5.16336C15.2354 5.09605 15.0857 5.02587 15.0177 4.95982C14.9497 4.89377 14.9657 4.83417 15.0643 4.78699C15.2622 4.70763 15.3224 4.60623 15.2393 4.49211C15.1082 4.41652 15.0974 4.34684 15.2087 4.29514C15.32 4.24345 15.5464 4.21302 15.8485 4.20913C16.0897 4.20312 16.1076 4.11576 16.2388 4.06629C16.3691 3.9981 16.5922 3.94579 16.8929 3.91289C17.1935 3.87999 17.5646 3.86728 17.9811 3.87564C19.2087 3.88247 20.362 3.85687 21.4205 3.79931L21.2308 3.77585C22.334 3.82638 23.3654 3.83251 24.2747 3.79394C25.186 3.74539 26.3555 3.77653 27.3235 3.74693C28.1114 3.75372 28.7114 3.68652 28.9959 3.55959C29.2715 3.4384 30.2729 3.46668 31.0398 3.48985C31.4941 3.50484 31.9332 3.51119 32.3523 3.50882C32.9149 3.4814 33.6184 3.50725 34.3453 3.58209C34.5635 3.60509 34.7783 3.61726 34.9693 3.61743C36.8173 3.64889 38.6621 3.6859 40.4852 3.70232C40.906 3.69286 41.3994 3.71452 41.9076 3.76474C42.1212 3.78654 42.329 3.79558 42.5032 3.79062C45.3839 3.74074 48.6345 3.868 51.4586 3.79918C51.8009 3.78292 52.1798 3.77954 52.5847 3.78913C53.4944 3.82956 54.2844 3.80354 54.8348 3.71502C55.1318 3.66795 55.5124 3.642 55.9526 3.63885C56.3928 3.6357 56.8827 3.65541 57.3913 3.69672C58.2375 3.75142 59.0196 3.75735 59.6551 3.71389C60.8941 3.67373 62.1971 3.65723 63.5538 3.66449C63.9695 3.67151 64.3349 3.65591 64.6217 3.61888C64.9086 3.58186 65.1091 3.52441 65.2078 3.45098C64.8746 3.32617 64.5103 3.31098 64.1644 3.32196C62.8236 3.29352 61.4861 3.25951 60.1704 3.24611C58.9927 3.20782 57.8627 3.19612 56.797 3.21117C56.2678 3.22815 55.6075 3.18943 54.9602 3.10348C54.1669 2.99462 53.3497 2.94053 52.6741 2.95217C52.1732 2.95506 51.6444 2.94568 51.0955 2.92418C50.7441 2.89824 50.384 2.85371 50.052 2.79515C49.9203 2.76972 49.7769 2.74833 49.6311 2.73236C49.4852 2.71639 49.3402 2.7062 49.2051 2.70242C49.07 2.69864 48.9478 2.70135 48.8464 2.71041C48.7451 2.71946 48.6668 2.73464 48.6164 2.75498C48.1082 2.92504 46.9717 2.83826 45.9986 2.81944C44.5403 2.53162 43.4549 2.70198 42.092 2.53941C41.9842 2.52863 41.8779 2.5221 41.7799 2.52024C41.6818 2.51838 41.5938 2.52121 41.5213 2.52857C38.8837 2.62642 35.8096 2.54487 33.0403 2.57866C32.7349 2.5836 32.3804 2.56667 32.0171 2.52978C29.6431 2.28563 27.3605 2.21632 25.6157 2.3354C25.4034 2.34612 25.1619 2.34658 24.9022 2.33675C23.7093 2.23972 22.5685 2.20103 21.575 2.22392C20.0181 2.21653 18.5212 2.22252 16.9393 2.20009C15.8488 2.16818 14.8922 2.20227 14.1652 2.29898C14.1421 2.33793 13.6578 2.29596 13.2869 2.2919C13.0736 2.19385 12.8886 2.10529 12.6687 2.01838C12.4721 1.91085 12.1775 1.80203 11.8052 1.69932C11.4328 1.5966 10.9913 1.50239 10.5104 1.42304C9.68832 1.32138 9.6061 1.17386 10.1814 1.11958C11.6642 0.940018 13.5287 0.866525 15.6379 0.904495C17.401 0.907529 19.1958 0.914482 20.984 0.932554C22.0269 0.948058 23.1265 0.982495 24.1411 0.988526C24.4835 1.00177 24.8352 1.0213 25.1926 1.04689C25.6312 1.08399 26.0569 1.10421 26.4471 1.10645C27.6997 1.07521 29.0976 1.10243 30.5742 1.18682C31.115 1.20522 31.6343 1.21142 32.1244 1.20533C33.2839 1.18243 34.5409 1.19928 35.8621 1.25546C36.6833 1.28714 37.4795 1.3037 38.2426 1.30498C38.5121 1.30844 38.7315 1.28183 38.9911 1.30198C41.2758 1.51283 42.8935 1.36053 44.9498 1.44161C45.9491 1.46422 46.9039 1.46428 47.8007 1.44181C49.5508 1.44289 51.3497 1.46601 53.1902 1.51106C55.624 1.58508 57.8793 1.5594 60.2031 1.58996C60.6619 1.59638 61.1049 1.59529 61.5288 1.58668C63.5911 1.5298 65.831 1.54186 68.1939 1.62257C68.7305 1.63423 69.2124 1.61997 69.6095 1.5807C70.0066 1.54143 70.3103 1.47798 70.5016 1.39434C70.5825 1.33693 70.5301 1.26237 70.3544 1.18503C70.0627 1.08626 69.7334 0.989492 69.3717 0.89631L56.2184 0.583634C55.6659 0.567306 55.1272 0.558517 54.6049 0.557301C53.0687 0.554583 51.4852 0.530258 49.8624 0.484449C48.2588 0.441419 46.7268 0.449058 45.1732 0.436102C44.7156 0.431762 44.2459 0.421523 43.766 0.405413C40.5221 0.27791 37.359 0.200033 34.2989 0.17234C33.0115 0.168411 31.6206 0.109894 30.3082 0.0909276C28.9957 0.0719609 27.201 0.0650164 25.6441 0.0576243L20.8238 0.0587594C19.8757 0.0549856 18.9525 0.0662452 18.0328 0.071945C16.9166 -0.334817 16.5319 -0.430158 15.0425 -0.608367C14.5329 -0.674104 14.0146 -0.713334 13.5483 -0.721462C12.0698 -0.689306 10.2146 -0.823161 8.81244 -0.80544C7.96639 -0.814181 7.24848 -0.768994 6.7322 -0.674503C6.28403 -0.600346 5.77155 -0.541667 5.20266 -0.499354C3.64427 -0.847329 3.50693 -1.07333 4.67919 -1.16128C4.9968 -1.18172 5.43428 -1.1754 5.66363 -1.2187C5.79523 -1.24507 5.975 -1.26015 6.18863 -1.26276C6.40225 -1.26537 6.64382 -1.25543 6.89438 -1.23372C7.68518 -1.17678 8.42638 -1.16338 9.04362 -1.19489C9.62452 -1.23659 10.3366 -1.23492 11.1111 -1.19005C11.6803 -1.11967 12.1805 -1.21905 12.6728 -1.24776C13.165 -1.27648 13.5689 -1.32805 14.3377 -1.2509C14.4785 -1.23554 14.6183 -1.22632 14.7463 -1.22394C14.8743 -1.22157 14.9872 -1.22611 15.0763 -1.23721C15.902 -1.28689 16.8873 -1.28167 17.9523 -1.22197C19.5856 -1.16322 21.1181 -1.16102 22.4965 -1.21544C23.3217 -1.26305 24.0252 -1.34749 24.5796 -1.46546C24.7307 -1.50492 24.9551 -1.52858 25.2313 -1.53417C26.6182 -1.50956 28.1241 -1.41692 29.652 -1.26224C30.2276 -1.20026 30.8024 -1.15123 31.3642 -1.1162C32.5188 -1.03839 33.6356 -0.99479 34.6814 -0.986687C36.2011 -0.985403 37.7833 -0.955464 39.414 -0.897143C40.4204 -0.86467 41.3901 -0.852684 42.3116 -0.861317C43.2588 -0.865386 44.2701 -0.840615 45.3226 -0.787581C46.3693 -0.744363 47.2917 -0.769264 47.9786 -0.85927C48.2048 -0.907772 48.387 -0.965366 48.5218 -1.03098C46.9893 -1.24448 45.4043 -1.35299 44.086 -1.33465C43.5853 -1.34879 43.1695 -1.33451 42.6419 -1.41767L42.6254 -1.38985C42.5204 -1.37181 42.362 -1.36755 42.1803 -1.37789C41.9987 -1.38824 41.8065 -1.41246 41.6405 -1.44595V-1.44595C41.7032 -1.55166 41.7627 -1.6518 41.8056 -1.72413C42.81 -1.71137 43.7853 -1.7124 44.7264 -1.72724C45.5198 -1.74858 46.5967 -1.56166 47.2834 -1.63202C48.6227 -1.54403 49.4755 -1.66552 50.6766 -1.63046C51.8776 -1.59541 53.2005 -1.4796 54.4016 -1.44455C55.4496 -1.42531 56.4673 -1.42113 57.4488 -1.43202C57.7876 -1.44731 58.1782 -1.44373 58.5966 -1.42148C59.1847 -1.37963 59.7317 -1.37261 60.1749 -1.40125C60.6181 -1.42988 60.9395 -1.49301 61.1025 -1.58339C60.9491 -1.66805 60.7424 -1.77721 60.5041 -1.89029C60.9425 -1.98321 61.6084 -2.02233 62.403 -2.00185L63.5258 -2.00633C63.8233 -2.00388 64.0508 -2.029 64.1611 -2.07649C64.2714 -2.12399 64.2562 -2.19022 64.1185 -2.2615C61.9896 -2.62031 61.9112 -2.65986 60.3486 -2.42907L58.274 -2.53632L58.3089 -2.53796ZM86.3703 -1.55232L86.2122 -1.57187L86.3703 -1.55232ZM344.913 36.623L344.876 36.6842L344.916 36.6174L345.264 36.6604L345.287 36.6215L344.913 36.623ZM294.412 9.799C293.921 9.73223 293.424 9.67085 292.926 9.61522C292.796 9.6066 292.674 9.60465 292.57 9.60954C292.467 9.61444 292.385 9.62603 292.332 9.64333C292.293 9.71009 292.571 9.75641 292.824 9.78769C293.143 9.82979 293.469 9.85655 293.768 9.8652C294.067 9.87384 294.329 9.86408 294.526 9.83689L294.812 9.81253L294.412 9.799ZM41.1911 26.0709C41.5147 26.0821 41.8217 26.0839 42.1043 26.0763C43.3582 26.0224 44.5587 25.9439 45.8443 25.8938C47.4663 25.7668 49.3302 25.715 51.3659 25.7405C52.1612 25.753 52.8331 25.7118 53.3032 25.6218C53.5846 25.5735 53.9478 25.5452 54.3707 25.5388L59.7526 25.3921C60.0852 25.3617 60.3729 25.319 60.6087 25.2651C60.1344 25.2064 59.8182 25.1673 59.6284 25.1439C59.2348 25.1373 58.8965 25.1551 58.6473 25.1957C58.3797 25.2645 57.9274 25.2917 57.3801 25.2719C56.8277 25.2556 56.289 25.2468 55.7666 25.2456C54.7803 25.249 53.7873 25.2636 52.7976 25.2726C52.4126 25.4639 51.2761 25.3771 50.303 25.3583L49.5512 25.3668C47.0938 25.466 44.7464 25.6024 42.5204 25.7754C42.0902 25.8047 41.7196 25.8514 41.4199 25.9141C41.3071 25.9629 41.2709 26.0239 41.3143 26.0921L41.1562 26.0725L41.1911 26.0709ZM150.929 44.3585C151.525 44.3715 152.146 44.3983 152.782 44.4384C153.272 44.4793 153.751 44.5042 154.198 44.5119C156.704 44.5548 159.316 44.6538 161.999 44.8077C162.349 44.831 162.686 44.8424 162.997 44.8415L165.192 44.8025C165.884 44.7805 165.897 44.7583 165.394 44.4631C164.976 44.4058 164.553 44.3535 164.129 44.3067C163.876 44.2754 163.465 44.2246 163.369 44.2724C162.782 44.4029 161.712 44.3184 160.812 44.2907C158.207 44.2194 155.52 44.1141 152.89 44.0277C152.334 44.0066 151.795 43.9959 151.28 43.9958C150.96 43.9914 150.668 43.9997 150.417 44.0205C150.343 44.0226 150.282 44.0288 150.236 44.0386C150.191 44.0484 150.162 44.0617 150.153 44.0774C150.144 44.0932 150.154 44.1112 150.182 44.1302C150.21 44.1491 150.257 44.1686 150.318 44.1874C150.533 44.2531 150.782 44.316 151.055 44.3741L150.929 44.3585ZM170.012 1.51677L172.579 1.48178C172.887 1.47802 173.148 1.43863 173.477 1.45548C175.234 1.50887 176.861 1.494 178.289 1.4115C178.775 1.37783 179.344 1.3711 179.964 1.39167C181.862 1.45264 183.653 1.45515 185.288 1.39912C186.345 1.38788 187.334 1.35012 188.24 1.2864C188.31 1.27161 188.353 1.25152 188.368 1.22752C188.382 1.20352 188.366 1.17616 188.323 1.14731C188.311 1.12908 188.28 1.10947 188.232 1.08984C188.183 1.0702 188.118 1.051 188.041 1.03356C187.965 1.01613 187.878 1.00087 187.787 0.988833C187.696 0.976795 187.603 0.968263 187.515 0.963837C186.37 0.877585 185.283 0.847537 184.343 0.876132C183.471 0.910346 182.532 0.920358 181.542 0.90601C180.594 0.902236 179.95 1.0138 178.779 0.928672C178.284 0.90064 177.846 0.909868 177.542 0.954812C176.928 1.02931 176.072 1.03345 175.125 0.966505C174.558 0.932625 174.017 0.918096 173.521 0.923472C172.319 0.947963 171.17 0.996964 170.055 1.04431C169.704 1.05527 169.328 1.05678 168.933 1.04881L163.353 0.956099C162.013 0.927658 160.675 0.893654 159.359 0.880251C158.283 0.851148 157.282 0.860263 156.391 0.907273C155.44 0.956684 154.404 0.976744 153.3 0.967073C151.587 0.994113 149.884 1.00446 148.019 1.00082C146.83 1.00305 145.613 0.995823 144.37 0.973549C143.741 0.944883 143.208 0.968229 142.872 1.03909C142.667 1.09743 142.186 1.0499 141.787 1.03636C139.657 0.905869 137.66 0.874949 135.935 0.945756C135.715 0.957294 135.473 0.961471 135.215 0.958215C133.553 0.955784 131.832 0.939968 130.236 0.939793C129.816 0.945294 129.421 0.96039 129.056 0.984889C129.095 1.02486 129.206 1.06818 129.367 1.10586C129.528 1.14355 129.726 1.17271 129.92 1.1873C131.428 1.29896 132.885 1.35795 134.229 1.36179C136.465 1.34756 138.807 1.37954 141.232 1.45739C143.113 1.53586 144.828 1.51934 146.25 1.40905C147.361 1.32675 148.807 1.35771 150.339 1.49662C150.994 1.56296 151.63 1.58949 152.16 1.57258C152.67 1.5504 153.256 1.55578 153.882 1.5884C155.202 1.65044 156.472 1.67922 157.666 1.67417C158.834 1.65133 159.923 1.58895 161.122 1.57002C162.321 1.55109 164.148 1.56194 165.626 1.52978C167.105 1.49763 168.567 1.49329 170.012 1.51677ZM63.6717 -1.73747C63.8072 -1.56545 64.2867 -1.45838 64.8025 -1.41251C66.5809 -1.20883 68.3391 -1.12216 69.7819 -1.16704C70.5612 -1.22964 71.6002 -1.20554 72.6947 -1.09948C73.969 -0.989229 75.1601 -0.970945 76.0581 -1.04785C76.2781 -1.06129 76.4466 -1.0897 76.5485 -1.13054C76.5683 -1.16393 76.6046 -1.22512 76.6112 -1.23625C76.5169 -1.26447 76.4012 -1.29062 76.273 -1.31267C76.1449 -1.33473 76.0077 -1.35211 75.8722 -1.36347L69.9815 -1.56039L68.955 -1.60372C67.08 -1.71725 65.2934 -1.76248 63.6717 -1.73747V-1.73747ZM75.2587 0.985269C76.178 1.26617 76.1812 1.26059 76.6522 1.32481C78.9245 1.59153 81.1953 1.73552 83.1943 1.73962C83.6385 1.73881 84.0156 1.7117 84.2935 1.66056C84.4365 1.65363 84.5274 1.63161 84.5466 1.5993C84.5658 1.56699 84.5116 1.52701 84.3958 1.48809L83.6648 1.29019C82.3371 1.20452 81.0284 1.13645 79.7468 1.08638C78.2545 1.02727 76.9321 1.02498 75.3851 1.0009L75.2587 0.985269ZM150.819 43.1147C151.675 43.5013 151.679 43.4957 153.113 43.5954C154.112 43.6661 155.082 43.7076 155.993 43.7186C157.105 43.7308 158.247 43.7525 159.356 43.7702C159.627 43.7826 159.857 43.7723 160 43.7416C160.144 43.7108 160.192 43.6616 160.134 43.6037C159.988 43.5407 159.76 43.4799 159.488 43.4309C159.215 43.382 158.913 43.3479 158.631 43.3342L158.025 43.325C157.29 43.3057 156.526 43.277 155.816 43.2728C155.355 43.2888 154.821 43.2764 154.256 43.2366C153.691 43.1967 153.11 43.1305 152.558 43.0431L150.819 43.1147ZM79.8331 -1.23199C80.0619 -1.16503 80.3206 -1.10091 80.6024 -1.04132C81.6934 -0.876143 82.8482 -0.782331 83.8403 -0.778272C84.3094 -0.76804 84.7384 -0.804572 85.216 -0.751485C86.0727 -0.680545 86.9028 -0.642757 87.6617 -0.640166C87.6617 -0.640166 87.8745 -0.655656 87.9443 -0.658963L88.0896 -0.903759C87.7304 -0.960469 87.3557 -1.0068 86.9829 -1.04061C85.7318 -1.10574 84.5024 -1.15027 83.2763 -1.20036C82.0502 -1.25045 81.6227 -1.27346 80.8209 -1.29498C80.4632 -1.28315 80.1324 -1.26205 79.8331 -1.23199ZM52.7399 29.201L54.3771 29.702C54.907 29.7456 55.4019 29.7534 55.7867 29.7245C56.1715 29.6955 56.425 29.6313 56.5088 29.5416C56.6436 29.4996 56.6571 29.4374 56.5464 29.3681C56.4357 29.2987 56.2094 29.2276 55.915 29.1696C55.6317 29.1008 55.3082 29.0392 54.9647 28.9885C54.6211 28.9378 54.2648 28.8991 53.9178 28.8748L52.7399 29.201ZM66.3716 26.7063C65.3008 26.6213 64.2766 26.5866 63.3772 26.6047C62.8106 26.6544 62.0429 26.6386 61.2314 26.5603C59.7557 26.4045 58.3331 26.3613 57.2638 26.44C57.2638 26.44 57.2241 26.5067 57.0429 26.5261C56.8617 26.5455 57.5805 26.5926 57.7386 26.6122C58.8981 26.66 60.0643 26.6967 61.0723 26.7139C61.6982 26.7131 62.3602 26.7289 63.0469 26.761C63.9918 26.8104 64.8878 26.8264 65.7001 26.8084C65.7001 26.8084 66.0144 26.7935 66.3683 26.7118L66.3716 26.7063ZM180.734 0.609017C180.222 0.514654 179.668 0.437961 179.111 0.384697C178.555 0.331433 178.012 0.302981 177.522 0.301466C177.147 0.296542 176.844 0.321456 176.66 0.37227C176.476 0.423083 176.422 0.496897 176.507 0.582036C176.887 0.628957 177.392 0.691516 177.677 0.726706C178.663 0.723263 179.505 0.678016 180.734 0.609017ZM276.48 8.56089C276.069 8.48493 275.617 8.42685 275.175 8.39329C274.733 8.35973 274.318 8.35204 273.979 8.37109C273.804 8.37936 273.923 8.46567 273.893 8.51575C273.874 8.5271 273.874 8.54122 273.894 8.55663C273.913 8.57204 273.952 8.58817 274.006 8.60333C274.059 8.61849 274.125 8.63212 274.198 8.6428C274.27 8.65347 274.345 8.6608 274.416 8.66401C274.861 8.69674 275.281 8.70648 275.639 8.69237C275.997 8.67826 276.281 8.64074 276.466 8.58315L276.48 8.56089ZM282.895 9.64679C282.831 9.60197 282.696 9.55525 282.514 9.5152C282.332 9.47515 282.116 9.44446 281.904 9.42875C281.53 9.42664 281.191 9.43907 280.898 9.46557C280.58 9.48601 280.809 9.61579 281.238 9.69279C281.42 9.72369 281.615 9.7478 281.806 9.76319C281.997 9.77858 282.18 9.78483 282.34 9.78145C282.501 9.77806 282.633 9.76513 282.729 9.74369C282.824 9.72224 282.878 9.69288 282.888 9.65792L282.895 9.64679ZM96.4868 -0.755217C95.5297 -0.915374 94.793 -0.875083 93.9827 -0.939453C93.1724 -1.00382 92.9727 -1.0106 93.0813 -0.907591C93.1898 -0.804588 93.7453 -0.825478 94.0932 -0.782467C94.5631 -0.725395 95.0359 -0.692624 95.4586 -0.687811C95.8813 -0.682998 96.2374 -0.706336 96.4868 -0.755217V-0.755217ZM295.928 26.3435C295.421 26.3076 294.924 26.2822 294.446 26.2677C294.383 26.2826 294.343 26.3021 294.33 26.325C294.316 26.348 294.328 26.3739 294.366 26.4013C294.366 26.4013 294.691 26.4832 294.881 26.5067C295.58 26.5871 295.614 26.4719 295.928 26.3435V26.3435ZM367.579 41.2652C367.922 41.3733 368.082 41.4468 368.357 41.4987C368.483 41.5167 368.614 41.5298 368.739 41.537C368.864 41.5442 368.98 41.5453 369.079 41.5402C369.2 41.5091 369.228 41.4614 369.158 41.4067C369.158 41.4067 368.809 41.3097 368.675 41.3052C368.296 41.2823 367.928 41.2689 367.579 41.2652V41.2652ZM80.1955 -1.6709C79.4682 -1.76084 78.7725 -1.84686 78.269 -1.74192C79.4238 -1.62897 79.4239 -1.62896 80.1955 -1.6709ZM91.9747 -0.644315C91.2403 -0.836647 90.8094 -0.8541 90.4568 -0.832002C90.3819 -0.826436 90.3324 -0.81403 90.3156 -0.796668C90.2989 -0.779307 90.3159 -0.757932 90.3641 -0.735776C90.4123 -0.713619 90.4891 -0.69189 90.5828 -0.673872C90.6765 -0.655854 90.7821 -0.642528 90.8835 -0.635913C91.2665 -0.630377 91.6317 -0.633188 91.9747 -0.644315V-0.644315ZM129.771 -0.562986C129.787 -0.590804 129.807 -0.624184 129.617 -0.647645C129.568 -0.659554 129.509 -0.669796 129.448 -0.677346C129.387 -0.684896 129.326 -0.689482 129.27 -0.690649C129.27 -0.690649 129.25 -0.657267 129.237 -0.635013L129.771 -0.562986ZM156.017 45.6208L155.595 45.6462L155.785 45.6696L156.285 45.6838L156.017 45.6208ZM304.739 9.21272C304.581 9.19317 304.423 9.17362 304.4 9.21256C304.366 9.2186 304.346 9.2273 304.339 9.23795C304.333 9.2486 304.341 9.26087 304.363 9.27376C304.363 9.27376 304.585 9.30114 304.68 9.31287L304.739 9.21272ZM280.116 9.5242C280.012 9.52197 279.919 9.52458 279.84 9.53187C279.84 9.53187 279.821 9.56525 279.821 9.56525L280.137 9.60435L280.116 9.5242ZM65.5365 17.4779C65.4144 17.4576 65.285 17.4416 65.1571 17.431L64.999 17.4114C64.999 17.4114 65.1689 17.4683 65.2637 17.48C65.3586 17.4917 65.4351 17.4773 65.5365 17.4779Z" fill="#DF6951"/>
</g>
</svg>
