<svg width="79" height="20" viewBox="0 0 79 20" fill="none" xmlns="http://www.w3.org/2000/svg">
<g clip-path="url(#clip0_191_2)">
<path d="M11.5073 10.0017L1.46381 19.673C0.993483 19.3515 0.714243 18.8169 0.719181 18.2473V1.7562C0.714243 1.18657 0.993483 0.651929 1.46381 0.330505L11.5073 10.0017Z" fill="#2196F3"/>
<path d="M15.0217 6.62364L11.5074 10.0018L1.46387 0.330532C1.50171 0.301203 1.54113 0.273918 1.58191 0.248803C2.11272 -0.0729183 2.77574 -0.0833047 3.31639 0.22156L15.0217 6.62364Z" fill="#4CAF50"/>
<path d="M19.2807 10.0018C19.2873 10.6448 18.9379 11.2388 18.3727 11.5456L15.0218 13.3799L11.5074 10.0018L15.0218 6.62366L18.3727 8.458C18.9379 8.76474 19.2873 9.35872 19.2807 10.0018Z" fill="#F0BB1F"/>
<path d="M15.0217 13.3799L3.31639 19.782C2.77455 20.0821 2.11404 20.0717 1.58191 19.7547C1.54113 19.7296 1.50171 19.7023 1.46387 19.673L11.5074 10.0018L15.0217 13.3799Z" fill="#F15A2B"/>
</g>
<path d="M31.024 4.88003H28.216V6.00003H29.712C29.512 6.53603 29.024 6.86403 28.28 6.86403C27.192 6.86403 26.52 6.16803 26.52 5.21603C26.52 4.23203 27.224 3.53603 28.168 3.53603C28.8 3.53603 29.304 3.82403 29.536 4.19203L30.624 3.56803C30.152 2.81603 29.248 2.28802 28.176 2.28802C26.528 2.28802 25.24 3.58402 25.24 5.20803C25.24 6.81603 26.504 8.11203 28.264 8.11203C29.832 8.11203 31.024 7.07203 31.024 5.36003V4.88003Z" fill="white"/>
<path d="M32.6256 6.76803V5.77603H34.6256V4.56003H32.6256V3.63203H34.8256V2.40002H31.3456V8.00003H34.8656V6.76803H32.6256Z" fill="white"/>
<path d="M38.9478 2.40002H34.7878V3.63203H36.2278V8.00003H37.5078V3.63203H38.9478V2.40002Z" fill="white"/>
<path d="M40.7081 2.40002V8.00003H41.9881V2.40002H40.7081Z" fill="white"/>
<path d="M46.3103 2.40002H42.1503V3.63203H43.5903V8.00003H44.8703V3.63203H46.3103V2.40002Z" fill="white"/>
<path d="M50.7426 8.11203C52.3506 8.11203 53.6546 6.84803 53.6546 5.20003C53.6546 3.55202 52.3506 2.28802 50.7426 2.28802C49.1346 2.28802 47.8306 3.55202 47.8306 5.20003C47.8306 6.84803 49.1346 8.11203 50.7426 8.11203ZM50.7426 6.86403C49.8306 6.86403 49.1106 6.20003 49.1106 5.20003C49.1106 4.20003 49.8306 3.53603 50.7426 3.53603C51.6546 3.53603 52.3746 4.20003 52.3746 5.20003C52.3746 6.20003 51.6546 6.86403 50.7426 6.86403Z" fill="white"/>
<path d="M57.0953 2.40002V5.44003L54.9353 2.40002H53.9753V8.00003H55.2553V4.96003L57.4153 8.00003H58.3753V2.40002H57.0953Z" fill="white"/>
<path d="M31.024 14.392V14.608C31.024 15.3067 30.776 15.896 30.28 16.376C29.784 16.8507 29.1307 17.088 28.32 17.088C27.4667 17.088 26.7627 16.8107 26.208 16.256C25.6533 15.696 25.376 15.0107 25.376 14.2C25.376 13.3894 25.6507 12.7067 26.2 12.152C26.7493 11.592 27.4453 11.312 28.288 11.312C28.8 11.312 29.2693 11.4347 29.696 11.68C30.128 11.9254 30.4613 12.2534 30.696 12.664L30.32 12.888C30.1333 12.536 29.856 12.2534 29.488 12.04C29.1253 11.8267 28.7253 11.72 28.288 11.72C27.5627 11.72 26.9653 11.96 26.496 12.44C26.032 12.9147 25.8 13.5014 25.8 14.2C25.8 14.8987 26.0347 15.488 26.504 15.968C26.9733 16.4427 27.5787 16.68 28.32 16.68C28.976 16.68 29.5067 16.5014 29.912 16.144C30.3173 15.7867 30.544 15.336 30.592 14.792H28.216V14.392H31.024Z" fill="white"/>
<path d="M36.7026 16.248C36.1426 16.808 35.4599 17.088 34.6546 17.088C33.8493 17.088 33.1666 16.808 32.6066 16.248C32.0466 15.6827 31.7666 15 31.7666 14.2C31.7666 13.4 32.0466 12.72 32.6066 12.16C33.1666 11.5947 33.8493 11.312 34.6546 11.312C35.4599 11.312 36.1426 11.5947 36.7026 12.16C37.2626 12.72 37.5426 13.4 37.5426 14.2C37.5426 15 37.2626 15.6827 36.7026 16.248ZM32.9026 15.96C33.3826 16.44 33.9666 16.68 34.6546 16.68C35.3426 16.68 35.9239 16.44 36.3986 15.96C36.8786 15.4747 37.1186 14.888 37.1186 14.2C37.1186 13.512 36.8786 12.928 36.3986 12.448C35.9239 11.9627 35.3426 11.72 34.6546 11.72C33.9666 11.72 33.3826 11.9627 32.9026 12.448C32.4279 12.928 32.1906 13.512 32.1906 14.2C32.1906 14.888 32.4279 15.4747 32.9026 15.96Z" fill="white"/>
<path d="M43.2339 16.248C42.6739 16.808 41.9912 17.088 41.1859 17.088C40.3805 17.088 39.6979 16.808 39.1379 16.248C38.5779 15.6827 38.2979 15 38.2979 14.2C38.2979 13.4 38.5779 12.72 39.1379 12.16C39.6979 11.5947 40.3805 11.312 41.1859 11.312C41.9912 11.312 42.6739 11.5947 43.2339 12.16C43.7939 12.72 44.0739 13.4 44.0739 14.2C44.0739 15 43.7939 15.6827 43.2339 16.248ZM39.4339 15.96C39.9139 16.44 40.4979 16.68 41.1859 16.68C41.8739 16.68 42.4552 16.44 42.9299 15.96C43.4099 15.4747 43.6499 14.888 43.6499 14.2C43.6499 13.512 43.4099 12.928 42.9299 12.448C42.4552 11.9627 41.8739 11.72 41.1859 11.72C40.4979 11.72 39.9139 11.9627 39.4339 12.448C38.9592 12.928 38.7219 13.512 38.7219 14.2C38.7219 14.888 38.9592 15.4747 39.4339 15.96Z" fill="white"/>
<path d="M50.4771 14.392V14.608C50.4771 15.3067 50.2291 15.896 49.7331 16.376C49.2371 16.8507 48.5838 17.088 47.7731 17.088C46.9198 17.088 46.2158 16.8107 45.6611 16.256C45.1064 15.696 44.8291 15.0107 44.8291 14.2C44.8291 13.3894 45.1038 12.7067 45.6531 12.152C46.2024 11.592 46.8984 11.312 47.7411 11.312C48.2531 11.312 48.7224 11.4347 49.1491 11.68C49.5811 11.9254 49.9144 12.2534 50.1491 12.664L49.7731 12.888C49.5864 12.536 49.3091 12.2534 48.9411 12.04C48.5784 11.8267 48.1784 11.72 47.7411 11.72C47.0158 11.72 46.4184 11.96 45.9491 12.44C45.4851 12.9147 45.2531 13.5014 45.2531 14.2C45.2531 14.8987 45.4878 15.488 45.9571 15.968C46.4264 16.4427 47.0318 16.68 47.7731 16.68C48.4291 16.68 48.9598 16.5014 49.3651 16.144C49.7704 15.7867 49.9971 15.336 50.0451 14.792H47.6691V14.392H50.4771Z" fill="white"/>
<path d="M51.9637 16.6H54.6037V17H51.5397V11.4H51.9637V16.6Z" fill="white"/>
<path d="M55.9091 16.6H58.7091V17H55.4851V11.4H58.6691V11.8H55.9091V13.976H58.4691V14.376H55.9091V16.6Z" fill="white"/>
<path d="M63.7875 11.4C64.2888 11.4 64.7048 11.5654 65.0355 11.896C65.3662 12.2267 65.5315 12.64 65.5315 13.136C65.5315 13.632 65.3662 14.0454 65.0355 14.376C64.7048 14.7014 64.2888 14.864 63.7875 14.864H62.3075V17H61.8835V11.4H63.7875ZM63.7875 14.464C64.1715 14.464 64.4862 14.3387 64.7315 14.088C64.9822 13.8374 65.1075 13.52 65.1075 13.136C65.1075 12.7467 64.9822 12.4267 64.7315 12.176C64.4862 11.9254 64.1715 11.8 63.7875 11.8H62.3075V14.464H63.7875Z" fill="white"/>
<path d="M67.0028 16.6H69.6428V17H66.5788V11.4H67.0028V16.6Z" fill="white"/>
<path d="M74.4484 17L73.9044 15.576H71.0964L70.5524 17H70.1044L72.2804 11.4H72.7284L74.8964 17H74.4484ZM71.2564 15.176H73.7524L72.5044 11.92L71.2564 15.176Z" fill="white"/>
<path d="M78.8809 11.4L76.8409 14.696V17H76.4169V14.696L74.3769 11.4H74.8569L76.6329 14.288L78.4009 11.4H78.8809Z" fill="white"/>
<defs>
<clipPath id="clip0_191_2">
<rect width="20" height="20" fill="white"/>
</clipPath>
</defs>
</svg>
